<svg xmlns="http://www.w3.org/2000/svg" viewBox="0 0 1200 400" role="img" aria-labelledby="title desc">
  <title id="title">Illustration d'aide juridique</title>
  <desc id="desc">Deux personnes discutent avec une balance de la justice en arrière-plan.</desc>
  <defs>
    <linearGradient id="bg" x1="0" x2="1" y1="0" y2="1">
      <stop offset="0%" stop-color="#e0f2fe"/>
      <stop offset="100%" stop-color="#f8fafc"/>
    </linearGradient>
    <linearGradient id="accent" x1="0" x2="1" y1="0" y2="1">
      <stop offset="0%" stop-color="#0ea5e9"/>
      <stop offset="100%" stop-color="#0369a1"/>
    </linearGradient>
  </defs>
  <rect width="1200" height="400" fill="url(#bg)"/>
  <g transform="translate(150,70)">
    <path d="M240 0l140 80v160l-140 80-140-80V80z" fill="#0c4a6e" opacity="0.08"/>
    <g transform="translate(200,60)">
      <rect x="-90" y="-40" rx="10" ry="10" width="180" height="80" fill="white" stroke="#e5e7eb"/>
      <rect x="-70" y="-15" rx="6" ry="6" width="140" height="14" fill="#e2e8f0"/>
      <rect x="-70" y="10" rx="6" ry="6" width="110" height="12" fill="#e2e8f0"/>
    </g>
    <g transform="translate(420,100)">
      <circle cx="0" cy="0" r="36" fill="url(#accent)"/>
      <rect x="-60" y="60" rx="6" ry="6" width="120" height="12" fill="#94a3b8"/>
      <rect x="-40" y="80" rx="6" ry="6" width="80" height="10" fill="#cbd5e1"/>
    </g>
  </g>
  <g transform="translate(800,60)">
    <path d="M120 0v120" stroke="#0369a1" stroke-width="6"/>
    <path d="M0 60h240" stroke="#0369a1" stroke-width="6"/>
    <circle cx="40" cy="60" r="40" fill="#0ea5e9" opacity="0.2"/>
    <circle cx="200" cy="60" r="40" fill="#0ea5e9" opacity="0.2"/>
  </g>
</svg>
